<svg width="25" height="24" viewBox="0 0 25 24" fill="none" xmlns="http://www.w3.org/2000/svg">
<mask id="mask0_9046_7718" style="mask-type:alpha" maskUnits="userSpaceOnUse" x="0" y="0" width="25" height="24">
<rect x="0.5" width="24" height="24" fill="#8b63e1"/>
</mask>
<g mask="url(#mask0_9046_7718)">
<path d="M18 20C17.3 20 16.7083 19.7583 16.225 19.275C15.7417 18.7917 15.5 18.2 15.5 17.5C15.5 16.8 15.7417 16.2083 16.225 15.725C16.7083 15.2417 17.3 15 18 15C18.1333 15 18.2833 15.0125 18.45 15.0375C18.6167 15.0625 18.8 15.1167 19 15.2V10H22.5V12H20.5V17.5C20.5 18.2 20.2583 18.7917 19.775 19.275C19.2917 19.7583 18.7 20 18 20ZM11.5 12C10.4 12 9.45833 11.6083 8.675 10.825C7.89167 10.0417 7.5 9.1 7.5 8C7.5 6.9 7.89167 5.95833 8.675 5.175C9.45833 4.39167 10.4 4 11.5 4C12.6 4 13.5417 4.39167 14.325 5.175C15.1083 5.95833 15.5 6.9 15.5 8C15.5 9.1 15.1083 10.0417 14.325 10.825C13.5417 11.6083 12.6 12 11.5 12ZM3.5 20V17.2C3.5 16.6167 3.64583 16.0917 3.9375 15.625C4.22917 15.1583 4.61667 14.8 5.1 14.55C6.13333 14.0333 7.18333 13.6458 8.25 13.3875C9.31667 13.1292 10.4 13 11.5 13C12.2 13 12.8958 13.0542 13.5875 13.1625C14.2792 13.2708 14.975 13.4333 15.675 13.65C14.575 14.3167 13.8917 15.2708 13.625 16.5125C13.3583 17.7542 13.575 18.9167 14.275 20H3.5Z" fill="#8b63e1"/>
</g>
</svg>
