<svg width="25" height="24" viewBox="0 0 25 24" fill="none" xmlns="http://www.w3.org/2000/svg">
<mask id="mask0_9046_5363" style="mask-type:alpha" maskUnits="userSpaceOnUse" x="0" y="0" width="25" height="24">
<rect x="0.5" width="24" height="24" fill="#D9D9D9"/>
</mask>
<g mask="url(#mask0_9046_5363)">
<path d="M19 10H22.5V12H20.5V17.5C20.5 18.2 20.2583 18.7917 19.775 19.275C19.2917 19.7583 18.7 20 18 20C17.3 20 16.7083 19.7583 16.225 19.275C15.7417 18.7917 15.5 18.2 15.5 17.5C15.5 16.8 15.7417 16.2083 16.225 15.725C16.7083 15.2417 17.3 15 18 15C18.1333 15 18.2833 15.0125 18.45 15.0375C18.6167 15.0625 18.8 15.1167 19 15.2V10ZM3.5 20V17.2C3.5 16.6167 3.64583 16.0917 3.9375 15.625C4.22917 15.1583 4.61667 14.8 5.1 14.55C6.13333 14.0333 7.18333 13.6458 8.25 13.3875C9.31667 13.1292 10.4 13 11.5 13C12.2 13 12.8958 13.0542 13.5875 13.1625C14.2792 13.2708 14.975 13.4333 15.675 13.65C15.3417 13.85 15.0417 14.0917 14.775 14.375C14.5083 14.6583 14.275 14.9667 14.075 15.3C13.6417 15.2 13.2125 15.125 12.7875 15.075C12.3625 15.025 11.9333 15 11.5 15C10.55 15 9.61667 15.1167 8.7 15.35C7.78333 15.5833 6.88333 15.9167 6 16.35C5.85 16.4333 5.72917 16.55 5.6375 16.7C5.54583 16.85 5.5 17.0167 5.5 17.2V18H13.525C13.5583 18.3333 13.6375 18.6667 13.7625 19C13.8875 19.3333 14.0583 19.6667 14.275 20H3.5ZM11.5 12C10.4 12 9.45833 11.6083 8.675 10.825C7.89167 10.0417 7.5 9.1 7.5 8C7.5 6.9 7.89167 5.95833 8.675 5.175C9.45833 4.39167 10.4 4 11.5 4C12.6 4 13.5417 4.39167 14.325 5.175C15.1083 5.95833 15.5 6.9 15.5 8C15.5 9.1 15.1083 10.0417 14.325 10.825C13.5417 11.6083 12.6 12 11.5 12ZM11.5 10C12.05 10 12.5208 9.80417 12.9125 9.4125C13.3042 9.02083 13.5 8.55 13.5 8C13.5 7.45 13.3042 6.97917 12.9125 6.5875C12.5208 6.19583 12.05 6 11.5 6C10.95 6 10.4792 6.19583 10.0875 6.5875C9.69583 6.97917 9.5 7.45 9.5 8C9.5 8.55 9.69583 9.02083 10.0875 9.4125C10.4792 9.80417 10.95 10 11.5 10Z" fill="white"/>
</g>
</svg>
