<svg width="25" height="24" viewBox="0 0 25 24" fill="none" xmlns="http://www.w3.org/2000/svg">
<path d="M12.5 15C14.5544 15 16.244 13.4709 16.4744 11.5139H13.78C13.428 11.5139 13.14 11.237 13.14 10.8846C13.14 10.5385 13.428 10.2554 13.78 10.2554H16.5V9.62611H13.78C13.428 9.62611 13.14 9.34924 13.14 8.99685C13.14 8.65076 13.428 8.36759 13.78 8.36759H16.5V7.73833H13.78C13.428 7.73833 13.14 7.46146 13.14 7.10907C13.14 6.76298 13.428 6.47981 13.78 6.47981H16.4744C16.244 4.52281 14.5544 3 12.5 3C10.292 3 8.5 4.76193 8.5 6.93288V11.0608C8.5 13.2318 10.292 15 12.5 15Z" fill="#8b63e1"/>
<path d="M18.8131 8C18.4353 8 18.1262 8.30046 18.1262 8.66769V10.8577C18.1413 13.8296 15.6129 16.3382 12.5006 16.3261C9.47216 16.3876 6.81049 13.7996 6.87506 10.8577V8.66769C6.87506 8.30046 6.56596 8 6.18818 8C5.81039 8 5.50129 8.30046 5.50129 8.66769V10.8577C5.42986 14.2737 8.32782 17.3584 11.8137 17.6281V19.6646H10.2463C10.0641 19.6646 9.8894 19.735 9.76058 19.8602C9.63177 19.9854 9.5594 20.1552 9.5594 20.3323C9.5594 20.5094 9.63177 20.6792 9.76058 20.8044C9.8894 20.9297 10.0641 21 10.2463 21H14.755C14.9372 21 15.1119 20.9297 15.2407 20.8044C15.3695 20.6792 15.4419 20.5094 15.4419 20.3323C15.4419 20.1552 15.3695 19.9854 15.2407 19.8602C15.1119 19.735 14.9372 19.6646 14.755 19.6646H13.1875V17.6281C16.7401 17.305 19.5103 14.3404 19.5 10.8577V8.66769C19.5 8.30046 19.1909 8 18.8131 8Z" fill="#8b63e1"/>
</svg>
