<svg width="14" height="15" viewBox="0 0 14 15" fill="none" xmlns="http://www.w3.org/2000/svg">
<g id="album" clip-path="url(#clip0_9123_5278)">
<g id="Group 1000004214">
<path id="Ellipse 12 (Stroke)" fill-rule="evenodd" clip-rule="evenodd" d="M7 13.45C10.2861 13.45 12.95 10.7861 12.95 7.5C12.95 4.21391 10.2861 1.55 7 1.55C3.71391 1.55 1.05 4.21391 1.05 7.5C1.05 10.7861 3.71391 13.45 7 13.45ZM7 14.5C10.866 14.5 14 11.366 14 7.5C14 3.63401 10.866 0.5 7 0.5C3.13401 0.5 0 3.63401 0 7.5C0 11.366 3.13401 14.5 7 14.5Z" fill="white"/>
<path id="Ellipse 13 (Stroke)" fill-rule="evenodd" clip-rule="evenodd" d="M7.00002 8.55002C7.57992 8.55002 8.05002 8.07992 8.05002 7.50002C8.05002 6.92013 7.57992 6.45002 7.00002 6.45002C6.42013 6.45002 5.95002 6.92013 5.95002 7.50002C5.95002 8.07992 6.42013 8.55002 7.00002 8.55002ZM7.00002 9.60002C8.15982 9.60002 9.10002 8.65982 9.10002 7.50002C9.10002 6.34023 8.15982 5.40002 7.00002 5.40002C5.84023 5.40002 4.90002 6.34023 4.90002 7.50002C4.90002 8.65982 5.84023 9.60002 7.00002 9.60002Z" fill="white"/>
</g>
</g>
<defs>
<clipPath id="clip0_9123_5278">
<rect width="14" height="14" fill="white" transform="translate(0 0.5)"/>
</clipPath>
</defs>
</svg>
