<svg width="14" height="15" viewBox="0 0 14 15" fill="none" xmlns="http://www.w3.org/2000/svg">
<g id="User">
<g id="Group 1000004215">
<path id="Vector" d="M6.71287 8.55941C8.11287 8.55941 9.23564 7.42277 9.23564 6.03663C9.23564 4.6505 8.11287 3.5 6.71287 3.5C5.31287 3.5 4.1901 4.63663 4.1901 6.02277C4.1901 7.40891 5.31287 8.55941 6.71287 8.55941ZM6.71287 4.16535C7.73861 4.16535 8.5703 4.99703 8.5703 6.02277C8.5703 7.04852 7.73861 7.8802 6.71287 7.8802C5.68713 7.8802 4.85545 7.06238 4.85545 6.03663C4.85545 5.01089 5.68713 4.16535 6.71287 4.16535ZM2.33267 12.5099H11.1208C11.301 12.5099 11.4535 12.3574 11.4535 12.1772C11.4535 10.4307 10.0257 9.00297 8.27921 9.00297H5.17426C3.42772 9.00297 2 10.4307 2 12.1772C2 12.3574 2.15248 12.5099 2.33267 12.5099ZM5.17426 9.66832H8.27921C9.55446 9.66832 10.5941 10.6109 10.7604 11.8446H2.69307C2.85941 10.6109 3.89901 9.66832 5.17426 9.66832Z" fill="white"/>
<path id="Vector_2" d="M10.5851 4.61522C10.6116 4.59649 10.6395 4.58832 10.6655 4.58809C10.6867 4.58838 10.7093 4.59454 10.7313 4.60855L10.8333 4.67362V4.79404C10.8333 4.84094 10.8201 4.88464 10.7981 4.91943C10.7763 4.95397 10.7483 4.97638 10.7209 4.98837C10.694 5.00019 10.6662 5.00276 10.6397 4.99717C10.6129 4.99153 10.5841 4.97679 10.5588 4.94994C10.5331 4.92278 10.5127 4.88481 10.5042 4.83946C10.4957 4.79403 10.5003 4.74721 10.5164 4.70603C10.5324 4.66501 10.5578 4.63451 10.5851 4.61522Z" fill="white" stroke="white"/>
</g>
</g>
</svg>
