<svg width="8" height="15" viewBox="0 0 8 15" fill="none" xmlns="http://www.w3.org/2000/svg">
<path d="M2.37225 7.72613L7.64737 13.0012C7.82679 13.1807 7.91351 13.39 7.90753 13.6292C7.90155 13.8685 7.80885 14.0778 7.62942 14.2572C7.45 14.4367 7.24067 14.5264 7.00143 14.5264C6.7622 14.5264 6.55287 14.4367 6.37344 14.2572L0.847126 8.74885C0.703585 8.60531 0.59593 8.44383 0.524159 8.2644C0.452389 8.08498 0.416504 7.90555 0.416504 7.72613C0.416504 7.5467 0.452389 7.36728 0.524159 7.18785C0.59593 7.00842 0.703585 6.84694 0.847126 6.7034L6.37344 1.17708C6.55287 0.997657 6.76519 0.910935 7.0104 0.916915C7.25562 0.922896 7.46794 1.0156 7.64737 1.19503C7.82679 1.37445 7.9165 1.58378 7.9165 1.82302C7.9165 2.06225 7.82679 2.27158 7.64737 2.45101L2.37225 7.72613Z" fill="white"/>
</svg>
