<svg width="24" height="25" viewBox="0 0 24 25" fill="none" xmlns="http://www.w3.org/2000/svg">
<g id="Theater Mode">
<path id="Union" fill-rule="evenodd" clip-rule="evenodd" d="M3.75 4.45813C3.08696 4.45813 2.45107 4.72152 1.98223 5.19036C1.51339 5.6592 1.25 6.29509 1.25 6.95813V17.4581C1.25 18.1212 1.51339 18.7571 1.98223 19.2259C2.45107 19.6947 3.08696 19.9581 3.75 19.9581H20.25C20.913 19.9581 21.5489 19.6947 22.0178 19.2259C22.4866 18.7571 22.75 18.1212 22.75 17.4581V6.95813C22.75 6.29509 22.4866 5.6592 22.0178 5.19036C21.5489 4.72152 20.913 4.45813 20.25 4.45813H3.75ZM3.39645 6.60458C3.49022 6.51081 3.61739 6.45813 3.75 6.45813H20.25C20.3826 6.45813 20.5098 6.51081 20.6036 6.60458C20.6973 6.69834 20.75 6.82552 20.75 6.95813V17.4581C20.75 17.5907 20.6973 17.7179 20.6036 17.8117C20.5098 17.9055 20.3826 17.9581 20.25 17.9581H3.75C3.61739 17.9581 3.49021 17.9055 3.39645 17.8117C3.30268 17.7179 3.25 17.5907 3.25 17.4581V6.95813C3.25 6.82552 3.30268 6.69834 3.39645 6.60458Z" fill="#C4C4C4"/>
</g>
</svg>
