<svg width="24" height="24" viewBox="0 0 24 24" fill="none" xmlns="http://www.w3.org/2000/svg">
<g id="Close outline">
<path id="Vector" d="M10.681 12L4.04821 19.6785C3.93703 19.8061 4.03052 20 4.20234 20L6.21872 20C6.33748 20 6.45118 19.9485 6.52951 19.8601L12 13.5264L17.4705 19.8601C17.5463 19.9485 17.66 20 17.7813 20L19.7977 20C19.9695 20 20.063 19.8061 19.9518 19.6785L13.319 12L19.9518 4.32147C19.9767 4.29303 19.9927 4.25825 19.9978 4.22124C20.003 4.18425 19.9971 4.14659 19.9809 4.11274C19.9646 4.07889 19.9387 4.05028 19.9063 4.03029C19.8738 4.01031 19.8361 3.9998 19.7977 4L17.7813 4C17.6625 4 17.5488 4.05154 17.4705 4.13988L12 10.4736L6.52951 4.13988C6.45371 4.05154 6.34 4 6.21872 4L4.20234 4C4.03052 4 3.93703 4.19387 4.04821 4.32148L10.681 12Z" fill="white"/>
</g>
</svg>
