<svg width="24" height="25" viewBox="0 0 24 25" fill="none" xmlns="http://www.w3.org/2000/svg">
<g id="Exit theater">
<path id="Vector" d="M11.2146 13.0957L6.92082 13.6019C6.74403 13.6234 6.66903 13.8403 6.79492 13.9662L7.97082 15.1421L4.38957 18.718C4.34969 18.7583 4.32732 18.8127 4.32732 18.8694C4.32732 18.926 4.34969 18.9804 4.38957 19.0207L5.52528 20.1537C5.60832 20.2368 5.74492 20.2368 5.82796 20.1537L9.40921 16.5752L10.5797 17.7457C10.6082 17.774 10.6441 17.7938 10.6832 17.8028C10.7223 17.8117 10.7632 17.8095 10.8012 17.7964C10.8391 17.7833 10.8726 17.7598 10.8979 17.7286C10.9231 17.6973 10.9391 17.6597 10.944 17.6198L11.4503 13.3314C11.4664 13.1948 11.3512 13.0796 11.2146 13.0957ZM13.4623 11.3194L17.7561 10.8131C17.9329 10.7917 18.0079 10.5747 17.882 10.4488L16.7061 9.27563L20.2873 5.69706C20.3704 5.61402 20.3704 5.47741 20.2873 5.39438L19.1516 4.26134C19.1113 4.22146 19.0569 4.19909 19.0003 4.19909C18.9436 4.19909 18.8892 4.22146 18.8489 4.26134L15.2677 7.83724L14.0971 6.6667C14.0687 6.63838 14.0328 6.61861 13.9937 6.60965C13.9546 6.60068 13.9137 6.60289 13.8757 6.616C13.8378 6.62912 13.8043 6.65262 13.779 6.68384C13.7537 6.71506 13.7378 6.75274 13.7329 6.79259L13.2266 11.081C13.2105 11.2203 13.3257 11.3355 13.4623 11.3194Z" fill="#C4C4C4"/>
</g>
</svg>
