<svg width="32" height="32" viewBox="0 0 32 32" fill="none" xmlns="http://www.w3.org/2000/svg">
<g id="Collapse">
<path id="Vector" d="M11.6778 6.31704C11.6492 6.08133 11.3599 5.98133 11.192 6.14918L9.63133 7.7099L4.85633 2.93847C4.80263 2.8853 4.73011 2.85547 4.65454 2.85547C4.57897 2.85547 4.50645 2.8853 4.45275 2.93847L2.93847 4.44918C2.8853 4.50288 2.85547 4.5754 2.85547 4.65097C2.85547 4.72654 2.8853 4.79906 2.93847 4.85275L7.71347 9.62776L6.14561 11.1956C6.10785 11.2336 6.08149 11.2814 6.06954 11.3335C6.05759 11.3857 6.06053 11.4402 6.07801 11.4908C6.0955 11.5414 6.12684 11.5861 6.16846 11.6198C6.21009 11.6535 6.26033 11.6748 6.31347 11.6813L12.0349 12.3563C12.217 12.3778 12.3742 12.2242 12.3528 12.0385L11.6778 6.31704ZM12.0385 19.6456L6.31347 20.3206C6.07776 20.3492 5.97776 20.6385 6.14561 20.8063L7.71347 22.3742L2.93847 27.142C2.8853 27.1957 2.85547 27.2683 2.85547 27.3438C2.85547 27.4194 2.8853 27.4919 2.93847 27.5456L4.45275 29.0563C4.56347 29.167 4.74561 29.167 4.85633 29.0563L9.63133 24.2849L11.192 25.8456C11.23 25.8834 11.2778 25.9097 11.33 25.9217C11.3822 25.9336 11.4367 25.9307 11.4873 25.9132C11.5379 25.8957 11.5826 25.8644 11.6162 25.8228C11.6499 25.7811 11.6712 25.7309 11.6778 25.6778L12.3528 19.9599C12.3742 19.7778 12.2206 19.6242 12.0385 19.6456ZM19.9599 12.3528L25.6849 11.6778C25.9206 11.6492 26.0206 11.3599 25.8528 11.192L24.2849 9.62776L29.0599 4.85633C29.1706 4.74561 29.1706 4.56347 29.0599 4.45275L27.5456 2.94204C27.4919 2.88887 27.4194 2.85904 27.3438 2.85904C27.2683 2.85904 27.1957 2.88887 27.142 2.94204L22.367 7.7099L20.8063 6.14918C20.7684 6.11142 20.7206 6.08506 20.6684 6.07311C20.6162 6.06116 20.5617 6.0641 20.5111 6.08158C20.4605 6.09907 20.4158 6.13041 20.3821 6.17204C20.3485 6.21366 20.3272 6.2639 20.3206 6.31704L19.6456 12.0349C19.6242 12.2206 19.7778 12.3742 19.9599 12.3528ZM24.2849 22.3706L25.8528 20.8028C25.8905 20.7648 25.9169 20.717 25.9288 20.6648C25.9408 20.6126 25.9378 20.5581 25.9204 20.5075C25.9029 20.4569 25.8715 20.4122 25.8299 20.3786C25.7883 20.3449 25.738 20.3236 25.6849 20.317L19.9635 19.642C19.7813 19.6206 19.6242 19.7742 19.6456 19.9599L20.3206 25.6813C20.3492 25.917 20.6385 26.017 20.8063 25.8492L22.367 24.2885L27.142 29.0599C27.2528 29.1706 27.4349 29.1706 27.5456 29.0599L29.0599 27.5492C29.1706 27.4385 29.1706 27.2563 29.0599 27.1456L24.2849 22.3706Z" fill="white"/>
</g>
</svg>
