<svg width="16" height="16" viewBox="0 0 16 16" fill="none" xmlns="http://www.w3.org/2000/svg">
<path d="M7 2.98425C7 3.24947 7.10536 3.50382 7.29289 3.69136C7.48043 3.8789 7.73478 3.98425 8 3.98425C8.26522 3.98425 8.51957 3.8789 8.70711 3.69136C8.89464 3.50382 9 3.24947 9 2.98425C9 2.71904 8.89464 2.46468 8.70711 2.27715C8.51957 2.08961 8.26522 1.98425 8 1.98425C7.73478 1.98425 7.48043 2.08961 7.29289 2.27715C7.10536 2.46468 7 2.71904 7 2.98425ZM7 7.98425C7 8.24947 7.10536 8.50382 7.29289 8.69136C7.48043 8.8789 7.73478 8.98425 8 8.98425C8.26522 8.98425 8.51957 8.8789 8.70711 8.69136C8.89464 8.50382 9 8.24947 9 7.98425C9 7.71904 8.89464 7.46468 8.70711 7.27715C8.51957 7.08961 8.26522 6.98425 8 6.98425C7.73478 6.98425 7.48043 7.08961 7.29289 7.27715C7.10536 7.46468 7 7.71904 7 7.98425V7.98425ZM7 12.9843C7 13.2495 7.10536 13.5038 7.29289 13.6914C7.48043 13.8789 7.73478 13.9843 8 13.9843C8.26522 13.9843 8.51957 13.8789 8.70711 13.6914C8.89464 13.5038 9 13.2495 9 12.9843C9 12.719 8.89464 12.4647 8.70711 12.2771C8.51957 12.0896 8.26522 11.9843 8 11.9843C7.73478 11.9843 7.48043 12.0896 7.29289 12.2771C7.10536 12.4647 7 12.719 7 12.9843V12.9843Z" fill="white"/>
</svg>
