<svg width="24" height="24" viewBox="0 0 24 24" fill="none" xmlns="http://www.w3.org/2000/svg">
<path d="M6.375 18.75C6.57391 18.75 6.76468 18.671 6.90533 18.5303C7.04598 18.3897 7.125 18.1989 7.125 18V3.75H16.875V17.25H14.625C14.4261 17.25 14.2353 17.329 14.0947 17.4697C13.954 17.6103 13.875 17.8011 13.875 18C13.875 18.1989 13.954 18.3897 14.0947 18.5303C14.2353 18.671 14.4261 18.75 14.625 18.75H16.875C17.2728 18.75 17.6544 18.592 17.9357 18.3107C18.217 18.0294 18.375 17.6478 18.375 17.25V3.75C18.375 3.35218 18.217 2.97064 17.9357 2.68934C17.6544 2.40804 17.2728 2.25 16.875 2.25H6.375C6.17609 2.25 5.98532 2.32902 5.84467 2.46967C5.70402 2.61032 5.625 2.80109 5.625 3V18C5.625 18.1989 5.70402 18.3897 5.84467 18.5303C5.98532 18.671 6.17609 18.75 6.375 18.75Z" fill="white"/>
<path d="M13.875 21.429C14.2728 21.429 14.6544 21.2709 14.9357 20.9896C15.217 20.7083 15.375 20.3268 15.375 19.929V6.52498C15.3744 6.21732 15.2795 5.91725 15.103 5.66525C14.9265 5.41325 14.6769 5.22145 14.388 5.11573L6.6315 2.29498C6.51818 2.25374 6.39659 2.24043 6.27704 2.25618C6.15748 2.27193 6.04349 2.31628 5.94472 2.38546C5.84595 2.45464 5.76532 2.54662 5.70966 2.6536C5.65401 2.76057 5.62496 2.87939 5.625 2.99998V18C5.62511 18.1538 5.67251 18.3039 5.76079 18.4299C5.84907 18.5558 5.97395 18.6516 6.1185 18.7042L13.362 21.3382C13.5264 21.3982 13.7 21.4289 13.875 21.429ZM7.125 4.07098L13.875 6.52498V19.929L7.125 17.475V4.07098Z" fill="white"/>
<path d="M11.625 13.5C11.2108 13.5 10.875 13.1642 10.875 12.75C10.875 12.3358 11.2108 12 11.625 12C12.0392 12 12.375 12.3358 12.375 12.75C12.375 13.1642 12.0392 13.5 11.625 13.5Z" fill="white"/>
</svg>
