<svg width="20" height="21" viewBox="0 0 20 21" fill="none" xmlns="http://www.w3.org/2000/svg">
<path d="M9.95 16.1016C10.3 16.1016 10.5958 15.9807 10.8375 15.7391C11.0792 15.4974 11.2 15.2016 11.2 14.8516C11.2 14.5016 11.0792 14.2057 10.8375 13.9641C10.5958 13.7224 10.3 13.6016 9.95 13.6016C9.6 13.6016 9.30417 13.7224 9.0625 13.9641C8.82083 14.2057 8.7 14.5016 8.7 14.8516C8.7 15.2016 8.82083 15.4974 9.0625 15.7391C9.30417 15.9807 9.6 16.1016 9.95 16.1016ZM9.05 12.2516H10.9C10.9 11.7016 10.9625 11.2682 11.0875 10.9516C11.2125 10.6349 11.5667 10.2016 12.15 9.65156C12.5833 9.21823 12.925 8.80573 13.175 8.41406C13.425 8.0224 13.55 7.55156 13.55 7.00156C13.55 6.06823 13.2083 5.35156 12.525 4.85156C11.8417 4.35156 11.0333 4.10156 10.1 4.10156C9.15 4.10156 8.37917 4.35156 7.7875 4.85156C7.19583 5.35156 6.78333 5.95156 6.55 6.65156L8.2 7.30156C8.28333 7.00156 8.47083 6.67656 8.7625 6.32656C9.05417 5.97656 9.5 5.80156 10.1 5.80156C10.6333 5.80156 11.0333 5.9474 11.3 6.23906C11.5667 6.53073 11.7 6.85156 11.7 7.20156C11.7 7.5349 11.6 7.8474 11.4 8.13906C11.2 8.43073 10.95 8.70156 10.65 8.95156C9.91667 9.60156 9.46667 10.0932 9.3 10.4266C9.13333 10.7599 9.05 11.3682 9.05 12.2516ZM10 20.1016C8.61667 20.1016 7.31667 19.8391 6.1 19.3141C4.88333 18.7891 3.825 18.0766 2.925 17.1766C2.025 16.2766 1.3125 15.2182 0.7875 14.0016C0.2625 12.7849 0 11.4849 0 10.1016C0 8.71823 0.2625 7.41823 0.7875 6.20156C1.3125 4.9849 2.025 3.92656 2.925 3.02656C3.825 2.12656 4.88333 1.41406 6.1 0.889063C7.31667 0.364062 8.61667 0.101562 10 0.101562C11.3833 0.101562 12.6833 0.364062 13.9 0.889063C15.1167 1.41406 16.175 2.12656 17.075 3.02656C17.975 3.92656 18.6875 4.9849 19.2125 6.20156C19.7375 7.41823 20 8.71823 20 10.1016C20 11.4849 19.7375 12.7849 19.2125 14.0016C18.6875 15.2182 17.975 16.2766 17.075 17.1766C16.175 18.0766 15.1167 18.7891 13.9 19.3141C12.6833 19.8391 11.3833 20.1016 10 20.1016Z" fill="white" fill-opacity="0.9"/>
</svg>
