<svg width="24" height="24" viewBox="0 0 24 24" fill="none" xmlns="http://www.w3.org/2000/svg">
<path d="M12 15C14.0544 15 15.744 13.4709 15.9744 11.5139H13.28C12.928 11.5139 12.64 11.237 12.64 10.8846C12.64 10.5385 12.928 10.2554 13.28 10.2554H16V9.62611H13.28C12.928 9.62611 12.64 9.34924 12.64 8.99685C12.64 8.65076 12.928 8.36759 13.28 8.36759H16V7.73833H13.28C12.928 7.73833 12.64 7.46146 12.64 7.10907C12.64 6.76298 12.928 6.47981 13.28 6.47981H15.9744C15.744 4.52281 14.0544 3 12 3C9.792 3 8 4.76193 8 6.93288V11.0608C8 13.2318 9.792 15 12 15Z" fill="white"/>
<path d="M18.3131 8C17.9353 8 17.6262 8.30046 17.6262 8.66769V10.8577C17.6413 13.8296 15.1129 16.3382 12.0006 16.3261C8.97216 16.3876 6.31049 13.7996 6.37506 10.8577V8.66769C6.37506 8.30046 6.06596 8 5.68818 8C5.31039 8 5.00129 8.30046 5.00129 8.66769V10.8577C4.92986 14.2737 7.82782 17.3584 11.3137 17.6281V19.6646H9.74628C9.56411 19.6646 9.3894 19.735 9.26058 19.8602C9.13177 19.9854 9.0594 20.1552 9.0594 20.3323C9.0594 20.5094 9.13177 20.6792 9.26058 20.8044C9.3894 20.9297 9.56411 21 9.74628 21H14.255C14.4372 21 14.6119 20.9297 14.7407 20.8044C14.8695 20.6792 14.9419 20.5094 14.9419 20.3323C14.9419 20.1552 14.8695 19.9854 14.7407 19.8602C14.6119 19.735 14.4372 19.6646 14.255 19.6646H12.6875V17.6281C16.2401 17.305 19.0103 14.3404 19 10.8577V8.66769C19 8.30046 18.6909 8 18.3131 8Z" fill="white"/>
</svg>
