<svg width="32" height="32" viewBox="0 0 32 32" fill="none" xmlns="http://www.w3.org/2000/svg">
<g id="Mic">
<path id="Vector" d="M15.9998 20C18.739 20 20.9918 17.9612 21.299 15.3519H17.7065C17.2372 15.3519 16.8532 14.9827 16.8532 14.5128C16.8532 14.0514 17.2372 13.6738 17.7065 13.6738H21.3332V12.8348H17.7065C17.2372 12.8348 16.8532 12.4657 16.8532 11.9958C16.8532 11.5343 17.2372 11.1568 17.7065 11.1568H21.3332V10.3178H17.7065C17.2372 10.3178 16.8532 9.94861 16.8532 9.47876C16.8532 9.0173 17.2372 8.63975 17.7065 8.63975H21.299C20.9918 6.03041 18.739 4 15.9998 4C13.0558 4 10.6665 6.34924 10.6665 9.24384V14.7478C10.6665 17.6424 13.0558 20 15.9998 20Z" fill="white"/>
<path id="Vector_2" d="M24.4173 10.666C23.9136 10.666 23.5014 11.0666 23.5014 11.5563V14.4763C23.5216 18.4389 20.1504 21.7836 16.0007 21.7675C11.9627 21.8494 8.41383 18.3988 8.49992 14.4763V11.5563C8.49992 11.0666 8.08779 10.666 7.58407 10.666C7.08036 10.666 6.66823 11.0666 6.66823 11.5563V14.4763C6.57298 19.0309 10.4369 23.1439 15.0848 23.5035V26.2188H12.9949C12.752 26.2188 12.519 26.3126 12.3473 26.4796C12.1755 26.6465 12.079 26.873 12.079 27.1091C12.079 27.3452 12.1755 27.5716 12.3473 27.7386C12.519 27.9056 12.752 27.9993 12.9949 27.9993H19.0065C19.2494 27.9993 19.4823 27.9056 19.6541 27.7386C19.8258 27.5716 19.9223 27.3452 19.9223 27.1091C19.9223 26.873 19.8258 26.6465 19.6541 26.4796C19.4823 26.3126 19.2494 26.2188 19.0065 26.2188H16.9165V23.5035C21.6533 23.0727 25.3469 19.1199 25.3331 14.4763V11.5563C25.3331 11.0666 24.921 10.666 24.4173 10.666Z" fill="white"/>
</g>
</svg>
