<svg width="40" height="40" viewBox="0 0 40 40" fill="none" xmlns="http://www.w3.org/2000/svg">
<g id="Play (Circle)">
<path id="Vector" d="M20 40C31.0457 40 40 31.0457 40 20C40 8.95431 31.0457 0 20 0C8.95431 0 0 8.95431 0 20C0 31.0457 8.95431 40 20 40Z" fill="white" fill-opacity="0.2"/>
<path id="Vector_2" fill-rule="evenodd" clip-rule="evenodd" d="M28.5718 19.9511C28.5638 19.8455 28.5312 19.7433 28.4766 19.6526C28.4221 19.5618 28.3471 19.485 28.2576 19.4283C28.2576 19.4255 28.2576 19.4255 28.2576 19.4283L15.3004 11.7714H15.2948C15.1928 11.7138 15.0776 11.6835 14.9605 11.6835C14.8433 11.6835 14.7282 11.7138 14.6262 11.7714C14.5229 11.831 14.437 11.9167 14.3773 12.02C14.3177 12.1233 14.2862 12.2404 14.2861 12.3597V27.6342C14.2887 27.7511 14.3213 27.8653 14.3808 27.9659C14.4404 28.0665 14.5249 28.1499 14.6262 28.2083C14.7275 28.2649 14.8415 28.2945 14.9575 28.2945C15.0735 28.2945 15.1877 28.2649 15.289 28.2083H15.2948L28.2375 20.5597C28.3394 20.4996 28.4238 20.4141 28.4824 20.3114C28.541 20.2087 28.5719 20.0924 28.5718 19.9741C28.5724 19.958 28.5724 19.9418 28.5718 19.9257V19.9511Z" fill="white"/>
</g>
</svg>
