<svg width="14" height="15" viewBox="0 0 14 15" fill="none" xmlns="http://www.w3.org/2000/svg">
<g id="Play Next">
<g id="Group 1338">
<path id="Vector" d="M12.4611 11.6693H4.25418C4.12615 11.6693 4.00336 11.6184 3.91282 11.5279C3.82229 11.4373 3.77143 11.3145 3.77143 11.1865C3.77143 11.0585 3.82229 10.9357 3.91282 10.8451C4.00336 10.7546 4.12615 10.7037 4.25418 10.7037H12.4611C12.5891 10.7037 12.7119 10.7546 12.8024 10.8451C12.893 10.9357 12.9438 11.0585 12.9438 11.1865C12.9438 11.3145 12.893 11.4373 12.8024 11.5279C12.7119 11.6184 12.5891 11.6693 12.4611 11.6693ZM12.4611 9.73823H4.25418C4.12615 9.73823 4.00336 9.68737 3.91282 9.59683C3.82229 9.5063 3.77143 9.38351 3.77143 9.25547C3.77143 9.12743 3.82229 9.00464 3.91282 8.91411C4.00336 8.82357 4.12615 8.77271 4.25418 8.77271H12.4611C12.5891 8.77271 12.7119 8.82357 12.8024 8.91411C12.893 9.00464 12.9438 9.12743 12.9438 9.25547C12.9438 9.38351 12.893 9.5063 12.8024 9.59683C12.7119 9.68737 12.5891 9.73823 12.4611 9.73823ZM12.4611 7.80719H4.25418C4.12615 7.80719 4.00336 7.75633 3.91282 7.6658C3.82229 7.57526 3.77143 7.45247 3.77143 7.32443C3.77143 7.1964 3.82229 7.07361 3.91282 6.98307C4.00336 6.89254 4.12615 6.84168 4.25418 6.84168H12.4611C12.5891 6.84168 12.7119 6.89254 12.8024 6.98307C12.893 7.07361 12.9438 7.1964 12.9438 7.32443C12.9438 7.45247 12.893 7.57526 12.8024 7.6658C12.7119 7.75633 12.5891 7.80719 12.4611 7.80719ZM12.4611 5.87616H6.18522C6.05718 5.87616 5.93439 5.8253 5.84386 5.73476C5.75332 5.64423 5.70246 5.52144 5.70246 5.3934C5.70246 5.26536 5.75332 5.14257 5.84386 5.05204C5.93439 4.9615 6.05718 4.91064 6.18522 4.91064H12.4611C12.5891 4.91064 12.7119 4.9615 12.8024 5.05204C12.893 5.14257 12.9438 5.26536 12.9438 5.3934C12.9438 5.52144 12.893 5.64423 12.8024 5.73476C12.7119 5.8253 12.5891 5.87616 12.4611 5.87616ZM2.80591 6.55781V4.22947C2.80591 4.05181 2.99949 3.94174 3.15205 4.0325L5.10818 5.19692C5.1423 5.21719 5.17056 5.24598 5.19018 5.28047C5.20981 5.31496 5.22013 5.35396 5.22013 5.39364C5.22013 5.43332 5.20981 5.47232 5.19018 5.50681C5.17056 5.5413 5.1423 5.5701 5.10818 5.59037L3.15205 6.75478C3.11725 6.77538 3.07763 6.78641 3.03719 6.78676C2.99676 6.78711 2.95695 6.77676 2.92181 6.75676C2.88666 6.73676 2.85743 6.70783 2.83708 6.67289C2.81672 6.63795 2.80597 6.59825 2.80591 6.55781Z" fill="white"/>
<path id="Vector_2" d="M1.35776 10.221C1.22972 10.221 1.10693 10.1701 1.0164 10.0796C0.925862 9.98906 0.875 9.86627 0.875 9.73823V6.35892C0.875 5.56044 1.52479 4.91064 2.32328 4.91064H3.77155C3.89959 4.91064 4.02238 4.96151 4.11291 5.05204C4.20345 5.14258 4.25431 5.26537 4.25431 5.3934C4.25431 5.52144 4.20345 5.64423 4.11291 5.73476C4.02238 5.8253 3.89959 5.87616 3.77155 5.87616H2.32328C2.05728 5.87616 1.84052 6.09292 1.84052 6.35892V9.73823C1.84052 9.86627 1.78966 9.98906 1.69912 10.0796C1.60859 10.1701 1.48579 10.221 1.35776 10.221Z" fill="white"/>
</g>
</g>
</svg>
