<svg width="15" height="16" viewBox="0 0 15 16" fill="none" xmlns="http://www.w3.org/2000/svg">
<path d="M8.33366 15.5C10.0142 15.2967 11.4066 14.582 12.5107 13.3557C13.6149 12.1294 14.167 10.6897 14.167 9.03658C14.167 8.14228 13.9864 7.28523 13.6253 6.46545C13.2642 5.64566 12.7503 4.93089 12.0837 4.32114L10.8962 5.47967C11.4239 5.94038 11.8232 6.47561 12.0941 7.08537C12.3649 7.69512 12.5003 8.34553 12.5003 9.03658C12.5003 10.229 12.1114 11.2825 11.3337 12.1972C10.5559 13.1118 9.55588 13.6707 8.33366 13.874V15.5ZM6.66699 15.5V13.874C5.45866 13.6572 4.46213 13.0948 3.67741 12.187C2.89269 11.2791 2.50033 10.229 2.50033 9.03658C2.50033 7.68157 2.98644 6.52981 3.95866 5.5813C4.93088 4.63279 6.11144 4.15854 7.50033 4.15854H7.56283L6.64616 5.05285L7.81283 6.19106L10.7295 3.34553L7.81283 0.5L6.64616 1.63821L7.56283 2.53252H7.50033C5.63921 2.53252 4.06283 3.1626 2.77116 4.42276C1.47949 5.68293 0.833659 7.22087 0.833659 9.03658C0.833659 10.6762 1.38574 12.1091 2.48991 13.3354C3.59408 14.5617 4.98644 15.2832 6.66699 15.5Z" fill="#6D8DFF"/>
</svg>
