<svg width="11" height="20" viewBox="0 0 11 20" fill="none" xmlns="http://www.w3.org/2000/svg">
<path d="M8.875 19.429C9.27282 19.429 9.65436 19.2709 9.93566 18.9896C10.217 18.7083 10.375 18.3268 10.375 17.929V4.52498C10.3744 4.21732 10.2795 3.91725 10.103 3.66525C9.92646 3.41325 9.67692 3.22145 9.388 3.11573L1.6315 0.294981C1.51818 0.25374 1.39659 0.24043 1.27704 0.256181C1.15748 0.271932 1.04349 0.316279 0.944719 0.385461C0.84595 0.454644 0.765319 0.546622 0.709661 0.653598C0.654005 0.760574 0.624964 0.879393 0.625 0.999981V16C0.625108 16.1538 0.672514 16.3039 0.760792 16.4299C0.849069 16.5558 0.973948 16.6516 1.1185 16.7042L8.362 19.3382C8.5264 19.3982 8.70002 19.4289 8.875 19.429ZM2.125 2.07098L8.875 4.52498V17.929L2.125 15.475V2.07098Z" fill="white"/>
</svg>
