<svg width="16" height="20" viewBox="0 0 16 20" fill="none" xmlns="http://www.w3.org/2000/svg">
<path d="M14.5076 12.0486C14.6513 12.1923 14.8463 12.273 15.0495 12.273C15.2527 12.273 15.4476 12.1923 15.5913 12.0486C15.735 11.9049 15.8158 11.71 15.8158 11.5068V8.42937C15.8158 8.22614 15.735 8.03123 15.5913 7.88753C15.4476 7.74382 15.2527 7.66309 15.0495 7.66309C14.8463 7.66309 14.6513 7.74382 14.5076 7.88753C14.3639 8.03123 14.2832 8.22614 14.2832 8.42937V11.5068C14.2832 11.71 14.3639 11.9049 14.5076 12.0486Z" fill="#B27CFF"/>
<path d="M10.9832 13.5928C11.1269 13.7365 11.3218 13.8172 11.5251 13.8172C11.7283 13.8172 11.9232 13.7365 12.0669 13.5928C12.2106 13.4491 12.2914 13.2542 12.2914 13.051V6.89617C12.2914 6.69294 12.2106 6.49803 12.0669 6.35432C11.9232 6.21062 11.7283 6.12988 11.5251 6.12988C11.3218 6.12988 11.1269 6.21062 10.9832 6.35432C10.8395 6.49803 10.7588 6.69294 10.7588 6.89617V13.051C10.7588 13.2542 10.8395 13.4491 10.9832 13.5928Z" fill="#B27CFF"/>
<path d="M3.93342 16.7928C4.07713 16.982 4.27204 17.0884 4.47527 17.0884C4.6785 17.0884 4.87341 16.982 5.01711 16.7928C5.16082 16.6036 5.24155 16.347 5.24155 16.0794L5.24155 3.67839C5.24155 3.41079 5.16082 3.33122 5.01711 3.14199C4.87341 2.95277 4.6785 2.91211 4.47527 2.91211C4.27204 2.91211 4.07713 2.95277 3.93342 3.14199C3.78972 3.33122 3.70898 3.41079 3.70898 3.67839V16.0794C3.70898 16.347 3.78972 16.6036 3.93342 16.7928Z" fill="#B27CFF"/>
<path d="M7.45784 15.1395C7.60154 15.2832 7.79645 15.3639 7.99968 15.3639C8.20291 15.3639 8.39782 15.2832 8.54153 15.1395C8.68523 14.9958 8.76597 14.8009 8.76597 14.5977V5.36394C8.76597 5.16071 8.68523 4.9658 8.54153 4.82209C8.39782 4.67839 8.20291 4.59766 7.99968 4.59766C7.79645 4.59766 7.60154 4.67839 7.45784 4.82209C7.31413 4.9658 7.2334 5.16071 7.2334 5.36394V14.5977C7.2334 14.8009 7.31413 14.9958 7.45784 15.1395Z" fill="#B27CFF"/>
<path d="M0.408032 19.7756C0.551738 19.9193 0.746646 20 0.949877 20C1.15311 20 1.34802 19.9193 1.49172 19.7756C1.63543 19.6319 1.71616 19.4369 1.71616 19.2337V0.766284C1.71616 0.563052 1.63543 0.368145 1.49172 0.224439C1.34802 0.0807326 1.15311 0 0.949877 0C0.746646 0 0.551738 0.0807326 0.408032 0.224439C0.264326 0.368145 0.183594 0.563052 0.183594 0.766284V19.2337C0.183594 19.4369 0.264326 19.6319 0.408032 19.7756Z" fill="#B27CFF"/>
</svg>
