<svg width="28" height="28" viewBox="0 0 28 28" fill="none" xmlns="http://www.w3.org/2000/svg">
<g id="Vocal">
<mask id="mask0_9841_388" style="mask-type:alpha" maskUnits="userSpaceOnUse" x="0" y="0" width="28" height="28">
<rect id="Bounding box" width="28" height="28" fill="#D9D9D9"/>
</mask>
<g mask="url(#mask0_9841_388)">
<path id="volume_up" d="M16.3333 24.1792V21.7875C18.0833 21.282 19.4931 20.3097 20.5625 18.8708C21.6319 17.432 22.1667 15.7986 22.1667 13.9708C22.1667 12.1431 21.6319 10.5097 20.5625 9.07085C19.4931 7.63196 18.0833 6.65973 16.3333 6.15418V3.76251C18.7444 4.30696 20.7083 5.5271 22.225 7.42293C23.7417 9.31876 24.5 11.5014 24.5 13.9708C24.5 16.4403 23.7417 18.6229 22.225 20.5188C20.7083 22.4146 18.7444 23.6347 16.3333 24.1792ZM3.5 17.5V10.5H8.16667L14 4.66668V23.3333L8.16667 17.5H3.5ZM16.3333 18.6667V9.27501C17.2472 9.70279 17.9618 10.3445 18.4771 11.2C18.9924 12.0556 19.25 12.9889 19.25 14C19.25 14.9917 18.9924 15.9104 18.4771 16.7563C17.9618 17.6021 17.2472 18.2389 16.3333 18.6667Z" fill="white"/>
</g>
</g>
</svg>
