<svg width="22" height="22" viewBox="0 0 22 22" fill="none" xmlns="http://www.w3.org/2000/svg">
<path d="M13.3333 21.1791V18.7875C15.0833 18.2819 16.4931 17.3097 17.5625 15.8708C18.6319 14.4319 19.1667 12.7986 19.1667 10.9708C19.1667 9.14301 18.6319 7.50967 17.5625 6.07079C16.4931 4.6319 15.0833 3.65967 13.3333 3.15412V0.762451C15.7444 1.3069 17.7083 2.52703 19.225 4.42287C20.7417 6.3187 21.5 8.50134 21.5 10.9708C21.5 13.4402 20.7417 15.6229 19.225 17.5187C17.7083 19.4145 15.7444 20.6347 13.3333 21.1791ZM0.5 14.5V7.49995H5.16667L11 1.66662V20.3333L5.16667 14.5H0.5ZM13.3333 15.6666V6.27495C14.2472 6.70273 14.9618 7.3444 15.4771 8.19995C15.9924 9.05551 16.25 9.98884 16.25 11C16.25 11.9916 15.9924 12.9104 15.4771 13.7562C14.9618 14.602 14.2472 15.2388 13.3333 15.6666Z" fill="white"/>
</svg>
