<svg width="28" height="28" viewBox="0 0 28 28" fill="none" xmlns="http://www.w3.org/2000/svg">
<g id="volume_off">
<mask id="mask0_9865_2956" style="mask-type:alpha" maskUnits="userSpaceOnUse" x="0" y="0" width="28" height="28">
<rect id="Bounding box" width="28" height="28" fill="#D9D9D9"/>
</mask>
<g mask="url(#mask0_9865_2956)">
<path id="volume_off_2" d="M23.1005 26.3667L19.5713 22.8376C19.0852 23.1487 18.5699 23.416 18.0255 23.6396C17.481 23.8633 16.9171 24.0431 16.3338 24.1792V21.7876C16.606 21.6903 16.8734 21.5931 17.1359 21.4959C17.3984 21.3987 17.6463 21.282 17.8796 21.1459L14.0005 17.2667V23.3334L8.16712 17.5001H3.50046V10.5001H7.23379L1.63379 4.90006L3.26712 3.26672L24.7338 24.7334L23.1005 26.3667ZM22.8671 19.6001L21.1755 17.9084C21.506 17.3056 21.7539 16.6737 21.9192 16.0126C22.0845 15.3514 22.1671 14.6709 22.1671 13.9709C22.1671 12.1431 21.6324 10.5098 20.563 9.07089C19.4935 7.632 18.0838 6.65978 16.3338 6.15422V3.76256C18.7449 4.307 20.7088 5.52714 22.2255 7.42297C23.7421 9.31881 24.5005 11.5014 24.5005 13.9709C24.5005 15.0014 24.3595 15.9931 24.0775 16.9459C23.7956 17.8987 23.3921 18.7834 22.8671 19.6001ZM18.9588 15.6917L16.3338 13.0667V9.27506C17.2477 9.70284 17.9623 10.3445 18.4775 11.2001C18.9928 12.0556 19.2505 12.9889 19.2505 14.0001C19.2505 14.2917 19.2262 14.5785 19.1775 14.8605C19.1289 15.1424 19.056 15.4195 18.9588 15.6917ZM14.0005 10.7334L10.9671 7.70006L14.0005 4.66672V10.7334Z" fill="white"/>
</g>
</g>
</svg>
