<svg width="24" height="24" viewBox="0 0 24 24" fill="none" xmlns="http://www.w3.org/2000/svg">
<path d="M22.1005 23.3667L18.5713 19.8376C18.0852 20.1487 17.5699 20.416 17.0255 20.6396C16.481 20.8633 15.9171 21.0431 15.3338 21.1792V18.7876C15.606 18.6903 15.8734 18.5931 16.1359 18.4959C16.3984 18.3987 16.6463 18.282 16.8796 18.1459L13.0005 14.2667V20.3334L7.16712 14.5001H2.50046V7.50006H6.23379L0.633789 1.90006L2.26712 0.266724L23.7338 21.7334L22.1005 23.3667ZM21.8671 16.6001L20.1755 14.9084C20.506 14.3056 20.7539 13.6737 20.9192 13.0126C21.0845 12.3514 21.1671 11.6709 21.1671 10.9709C21.1671 9.14311 20.6324 7.50978 19.563 6.07089C18.4935 4.632 17.0838 3.65978 15.3338 3.15422V0.762557C17.7449 1.307 19.7088 2.52714 21.2255 4.42297C22.7421 6.31881 23.5005 8.50145 23.5005 10.9709C23.5005 12.0014 23.3595 12.9931 23.0775 13.9459C22.7956 14.8987 22.3921 15.7834 21.8671 16.6001ZM17.9588 12.6917L15.3338 10.0667V6.27506C16.2477 6.70284 16.9623 7.3445 17.4775 8.20006C17.9928 9.05561 18.2505 9.98895 18.2505 11.0001C18.2505 11.2917 18.2262 11.5785 18.1775 11.8605C18.1289 12.1424 18.056 12.4195 17.9588 12.6917ZM13.0005 7.73339L9.96712 4.70006L13.0005 1.66672V7.73339Z" fill="white"/>
</svg>
