<svg width="21" height="16" viewBox="0 0 21 16" fill="none" xmlns="http://www.w3.org/2000/svg">
<path d="M10.5 13C10.7833 13 11.0208 12.9042 11.2125 12.7125C11.4042 12.5208 11.5 12.2833 11.5 12C11.5 11.7167 11.4042 11.4792 11.2125 11.2875C11.0208 11.0958 10.7833 11 10.5 11C10.2167 11 9.97917 11.0958 9.7875 11.2875C9.59583 11.4792 9.5 11.7167 9.5 12C9.5 12.2833 9.59583 12.5208 9.7875 12.7125C9.97917 12.9042 10.2167 13 10.5 13ZM10.5 9C10.7833 9 11.0208 8.90417 11.2125 8.7125C11.4042 8.52083 11.5 8.28333 11.5 8C11.5 7.71667 11.4042 7.47917 11.2125 7.2875C11.0208 7.09583 10.7833 7 10.5 7C10.2167 7 9.97917 7.09583 9.7875 7.2875C9.59583 7.47917 9.5 7.71667 9.5 8C9.5 8.28333 9.59583 8.52083 9.7875 8.7125C9.97917 8.90417 10.2167 9 10.5 9ZM10.5 5C10.7833 5 11.0208 4.90417 11.2125 4.7125C11.4042 4.52083 11.5 4.28333 11.5 4C11.5 3.71667 11.4042 3.47917 11.2125 3.2875C11.0208 3.09583 10.7833 3 10.5 3C10.2167 3 9.97917 3.09583 9.7875 3.2875C9.59583 3.47917 9.5 3.71667 9.5 4C9.5 4.28333 9.59583 4.52083 9.7875 4.7125C9.97917 4.90417 10.2167 5 10.5 5ZM18.5 16H2.5C1.95 16 1.47917 15.8042 1.0875 15.4125C0.695833 15.0208 0.5 14.55 0.5 14V10C1.05 10 1.52083 9.80417 1.9125 9.4125C2.30417 9.02083 2.5 8.55 2.5 8C2.5 7.45 2.30417 6.97917 1.9125 6.5875C1.52083 6.19583 1.05 6 0.5 6V2C0.5 1.45 0.695833 0.979167 1.0875 0.5875C1.47917 0.195833 1.95 0 2.5 0H18.5C19.05 0 19.5208 0.195833 19.9125 0.5875C20.3042 0.979167 20.5 1.45 20.5 2V6C19.95 6 19.4792 6.19583 19.0875 6.5875C18.6958 6.97917 18.5 7.45 18.5 8C18.5 8.55 18.6958 9.02083 19.0875 9.4125C19.4792 9.80417 19.95 10 20.5 10V14C20.5 14.55 20.3042 15.0208 19.9125 15.4125C19.5208 15.8042 19.05 16 18.5 16ZM18.5 14V11.45C17.8833 11.0833 17.3958 10.5958 17.0375 9.9875C16.6792 9.37917 16.5 8.71667 16.5 8C16.5 7.28333 16.6792 6.62083 17.0375 6.0125C17.3958 5.40417 17.8833 4.91667 18.5 4.55V2H2.5V4.55C3.11667 4.91667 3.60417 5.40417 3.9625 6.0125C4.32083 6.62083 4.5 7.28333 4.5 8C4.5 8.71667 4.32083 9.37917 3.9625 9.9875C3.60417 10.5958 3.11667 11.0833 2.5 11.45V14H18.5Z" fill="white"/>
</svg>
