<svg width="25" height="24" viewBox="0 0 25 24" fill="none" xmlns="http://www.w3.org/2000/svg">
<mask id="mask0_6925_117765" style="mask-type:alpha" maskUnits="userSpaceOnUse" x="0" y="0" width="25" height="24">
<rect x="0.5" width="24" height="24" fill="#D9D9D9"/>
</mask>
<g mask="url(#mask0_6925_117765)">
<path d="M13 15C13.7 15 14.2917 14.7583 14.775 14.275C15.2583 13.7917 15.5 13.2 15.5 12.5V7H18.5V5H14.5V10.5C14.2833 10.3333 14.05 10.2083 13.8 10.125C13.55 10.0417 13.2833 10 13 10C12.3 10 11.7083 10.2417 11.225 10.725C10.7417 11.2083 10.5 11.8 10.5 12.5C10.5 13.2 10.7417 13.7917 11.225 14.275C11.7083 14.7583 12.3 15 13 15ZM8.5 18C7.95 18 7.47917 17.8042 7.0875 17.4125C6.69583 17.0208 6.5 16.55 6.5 16V4C6.5 3.45 6.69583 2.97917 7.0875 2.5875C7.47917 2.19583 7.95 2 8.5 2H20.5C21.05 2 21.5208 2.19583 21.9125 2.5875C22.3042 2.97917 22.5 3.45 22.5 4V16C22.5 16.55 22.3042 17.0208 21.9125 17.4125C21.5208 17.8042 21.05 18 20.5 18H8.5ZM8.5 16H20.5V4H8.5V16ZM4.5 22C3.95 22 3.47917 21.8042 3.0875 21.4125C2.69583 21.0208 2.5 20.55 2.5 20V6H4.5V20H18.5V22H4.5Z" fill="#8b63e1"/>
</g>
</svg>
