<svg width="25" height="24" viewBox="0 0 25 24" fill="none" xmlns="http://www.w3.org/2000/svg">
<mask id="mask0_6925_117701" style="mask-type:alpha" maskUnits="userSpaceOnUse" x="0" y="0" width="25" height="24">
<rect x="0.5" width="24" height="24" fill="#D9D9D9"/>
</mask>
<g mask="url(#mask0_6925_117701)">
<path d="M16.5 20C15.6667 20 14.9583 19.7083 14.375 19.125C13.7917 18.5417 13.5 17.8333 13.5 17C13.5 16.1667 13.7917 15.4583 14.375 14.875C14.9583 14.2917 15.6667 14 16.5 14C16.6833 14 16.8583 14.0125 17.025 14.0375C17.1917 14.0625 17.35 14.1167 17.5 14.2V6H22.5V8H19.5V17C19.5 17.8333 19.2083 18.5417 18.625 19.125C18.0417 19.7083 17.3333 20 16.5 20ZM3.5 16V14H11.5V16H3.5ZM3.5 12V10H15.5V12H3.5ZM3.5 8V6H15.5V8H3.5Z" fill="#8b63e1"/>
</g>
</svg>
