<svg width="25" height="24" viewBox="0 0 25 24" fill="none" xmlns="http://www.w3.org/2000/svg">
<mask id="mask0_6925_117571" style="mask-type:alpha" maskUnits="userSpaceOnUse" x="0" y="0" width="25" height="24">
<rect x="0.5" width="24" height="24" fill="#D9D9D9"/>
</mask>
<g mask="url(#mask0_6925_117571)">
<path d="M14.5 19C14.7833 19 15.0208 18.9042 15.2125 18.7125C15.4042 18.5208 15.5 18.2833 15.5 18C15.5 17.7167 15.4042 17.4792 15.2125 17.2875C15.0208 17.0958 14.7833 17 14.5 17C14.2167 17 13.9792 17.0958 13.7875 17.2875C13.5958 17.4792 13.5 17.7167 13.5 18C13.5 18.2833 13.5958 18.5208 13.7875 18.7125C13.9792 18.9042 14.2167 19 14.5 19ZM17.5 19C17.7833 19 18.0208 18.9042 18.2125 18.7125C18.4042 18.5208 18.5 18.2833 18.5 18C18.5 17.7167 18.4042 17.4792 18.2125 17.2875C18.0208 17.0958 17.7833 17 17.5 17C17.2167 17 16.9792 17.0958 16.7875 17.2875C16.5958 17.4792 16.5 17.7167 16.5 18C16.5 18.2833 16.5958 18.5208 16.7875 18.7125C16.9792 18.9042 17.2167 19 17.5 19ZM3.5 13V4C3.5 3.45 3.69583 2.97917 4.0875 2.5875C4.47917 2.19583 4.95 2 5.5 2H19.5C20.05 2 20.5208 2.19583 20.9125 2.5875C21.3042 2.97917 21.5 3.45 21.5 4V13H19.5V4H5.5V13H3.5ZM5.5 15V20H19.5V15H5.5ZM5.5 22C4.95 22 4.47917 21.8042 4.0875 21.4125C3.69583 21.0208 3.5 20.55 3.5 20V13H21.5V20C21.5 20.55 21.3042 21.0208 20.9125 21.4125C20.5208 21.8042 20.05 22 19.5 22H5.5Z" fill="#8b63e1"/>
</g>
</svg>
