<svg width="25" height="24" viewBox="0 0 25 24" fill="none" xmlns="http://www.w3.org/2000/svg">
<mask id="mask0_6925_117831" style="mask-type:alpha" maskUnits="userSpaceOnUse" x="0" y="0" width="25" height="24">
<rect x="0.5" width="24" height="24" fill="#D9D9D9"/>
</mask>
<g mask="url(#mask0_6925_117831)">
<path d="M11.5 19H13.5V14.825L15.1 16.425L16.5 15L12.5 11L8.5 15L9.925 16.4L11.5 14.825V19ZM6.5 22C5.95 22 5.47917 21.8042 5.0875 21.4125C4.69583 21.0208 4.5 20.55 4.5 20V4C4.5 3.45 4.69583 2.97917 5.0875 2.5875C5.47917 2.19583 5.95 2 6.5 2H14.5L20.5 8V20C20.5 20.55 20.3042 21.0208 19.9125 21.4125C19.5208 21.8042 19.05 22 18.5 22H6.5ZM13.5 9V4H6.5V20H18.5V9H13.5Z" fill="white"/>
</g>
</svg>
